<mxfile host="Electron" agent="Mozilla/5.0 (X11; Linux x86_64) AppleWebKit/537.36 (KHTML, like Gecko) draw.io/26.0.16 Chrome/132.0.6834.196 Electron/34.2.0 Safari/537.36" version="26.0.16">
  <diagram name="Page-1" id="LUboGaUDFJcz9n9VFNqY">
    <mxGraphModel dx="2071" dy="869" grid="1" gridSize="10" guides="1" tooltips="1" connect="1" arrows="1" fold="1" page="1" pageScale="1" pageWidth="850" pageHeight="1100" math="0" shadow="0">
      <root>
        <mxCell id="0" />
        <mxCell id="1" parent="0" />
        <mxCell id="LZFOruKKCX2UdWkoUHdO-7" style="edgeStyle=orthogonalEdgeStyle;rounded=0;orthogonalLoop=1;jettySize=auto;html=1;exitX=0.5;exitY=1;exitDx=0;exitDy=0;entryX=0.5;entryY=0;entryDx=0;entryDy=0;jumpStyle=none;" edge="1" parent="1" source="LZFOruKKCX2UdWkoUHdO-3" target="LZFOruKKCX2UdWkoUHdO-2">
          <mxGeometry relative="1" as="geometry" />
        </mxCell>
        <mxCell id="LZFOruKKCX2UdWkoUHdO-19" style="edgeStyle=orthogonalEdgeStyle;rounded=0;orthogonalLoop=1;jettySize=auto;html=1;exitX=0.75;exitY=1;exitDx=0;exitDy=0;entryX=0.25;entryY=0;entryDx=0;entryDy=0;noJump=0;jumpStyle=none;dashed=1;" edge="1" parent="1" source="JThwmtuQTnnpR4SAIkMF-2" target="02BFiXAFzsQtkcaQQJPB-17">
          <mxGeometry relative="1" as="geometry" />
        </mxCell>
        <mxCell id="02BFiXAFzsQtkcaQQJPB-13" style="edgeStyle=orthogonalEdgeStyle;rounded=0;orthogonalLoop=1;jettySize=auto;html=1;exitX=0.75;exitY=1;exitDx=0;exitDy=0;entryX=0.5;entryY=0;entryDx=0;entryDy=0;" parent="1" source="02BFiXAFzsQtkcaQQJPB-1" target="02BFiXAFzsQtkcaQQJPB-81" edge="1">
          <mxGeometry relative="1" as="geometry">
            <mxPoint x="555" y="430" as="targetPoint" />
          </mxGeometry>
        </mxCell>
        <mxCell id="02BFiXAFzsQtkcaQQJPB-67" style="edgeStyle=orthogonalEdgeStyle;rounded=0;orthogonalLoop=1;jettySize=auto;html=1;exitX=0.25;exitY=1;exitDx=0;exitDy=0;entryX=0.5;entryY=0;entryDx=0;entryDy=0;" parent="1" source="02BFiXAFzsQtkcaQQJPB-1" target="02BFiXAFzsQtkcaQQJPB-66" edge="1">
          <mxGeometry relative="1" as="geometry" />
        </mxCell>
        <mxCell id="02BFiXAFzsQtkcaQQJPB-1" value="quadlets-hostwatch.target&lt;div&gt;(&lt;span style=&quot;background-color: transparent; color: light-dark(rgb(0, 0, 0), rgb(255, 255, 255));&quot;&gt;hostwatched&amp;nbsp;&lt;/span&gt;&lt;span style=&quot;background-color: transparent; color: light-dark(rgb(0, 0, 0), rgb(255, 255, 255));&quot;&gt;quadlets)&lt;/span&gt;&lt;/div&gt;" style="rounded=1;whiteSpace=wrap;html=1;fillColor=#d5e8d4;strokeColor=#82b366;fillStyle=solid;" parent="1" vertex="1">
          <mxGeometry x="250" y="320" width="160" height="60" as="geometry" />
        </mxCell>
        <mxCell id="LZFOruKKCX2UdWkoUHdO-13" style="edgeStyle=orthogonalEdgeStyle;rounded=0;orthogonalLoop=1;jettySize=auto;html=1;exitX=0.5;exitY=1;exitDx=0;exitDy=0;entryX=0.5;entryY=0;entryDx=0;entryDy=0;" edge="1" parent="1" source="02BFiXAFzsQtkcaQQJPB-2" target="02BFiXAFzsQtkcaQQJPB-72">
          <mxGeometry relative="1" as="geometry" />
        </mxCell>
        <mxCell id="LZFOruKKCX2UdWkoUHdO-24" style="edgeStyle=orthogonalEdgeStyle;rounded=0;orthogonalLoop=1;jettySize=auto;html=1;exitX=0.25;exitY=1;exitDx=0;exitDy=0;entryX=0.5;entryY=0;entryDx=0;entryDy=0;" edge="1" parent="1" source="02BFiXAFzsQtkcaQQJPB-2" target="02BFiXAFzsQtkcaQQJPB-97">
          <mxGeometry relative="1" as="geometry" />
        </mxCell>
        <mxCell id="02BFiXAFzsQtkcaQQJPB-2" value="quadlets-meta.target&lt;div&gt;(all quadlets)&lt;/div&gt;" style="rounded=1;whiteSpace=wrap;html=1;fillColor=#d5e8d4;strokeColor=#82b366;" parent="1" vertex="1">
          <mxGeometry x="150" y="70" width="160" height="60" as="geometry" />
        </mxCell>
        <mxCell id="02BFiXAFzsQtkcaQQJPB-104" style="edgeStyle=orthogonalEdgeStyle;rounded=0;orthogonalLoop=1;jettySize=auto;html=1;exitX=0.5;exitY=1;exitDx=0;exitDy=0;entryX=0.5;entryY=0;entryDx=0;entryDy=0;" parent="1" source="02BFiXAFzsQtkcaQQJPB-7" target="02BFiXAFzsQtkcaQQJPB-82" edge="1">
          <mxGeometry relative="1" as="geometry" />
        </mxCell>
        <mxCell id="02BFiXAFzsQtkcaQQJPB-7" value="quadlets-hostwatch.path" style="rounded=1;whiteSpace=wrap;html=1;fillColor=#dae8fc;strokeColor=#6c8ebf;" parent="1" vertex="1">
          <mxGeometry x="420" y="500" width="160" height="60" as="geometry" />
        </mxCell>
        <mxCell id="02BFiXAFzsQtkcaQQJPB-14" style="edgeStyle=orthogonalEdgeStyle;rounded=0;orthogonalLoop=1;jettySize=auto;html=1;exitX=0.5;exitY=1;exitDx=0;exitDy=0;entryX=0.5;entryY=0;entryDx=0;entryDy=0;" parent="1" source="02BFiXAFzsQtkcaQQJPB-81" target="02BFiXAFzsQtkcaQQJPB-7" edge="1">
          <mxGeometry relative="1" as="geometry">
            <mxPoint x="555" y="470" as="sourcePoint" />
          </mxGeometry>
        </mxCell>
        <mxCell id="02BFiXAFzsQtkcaQQJPB-79" style="edgeStyle=orthogonalEdgeStyle;rounded=0;orthogonalLoop=1;jettySize=auto;html=1;exitX=0.75;exitY=1;exitDx=0;exitDy=0;" parent="1" source="02BFiXAFzsQtkcaQQJPB-17" target="02BFiXAFzsQtkcaQQJPB-76" edge="1">
          <mxGeometry relative="1" as="geometry" />
        </mxCell>
        <mxCell id="02BFiXAFzsQtkcaQQJPB-17" value="container.service&lt;br&gt;&lt;div&gt;(Needs Network)&lt;/div&gt;" style="rounded=1;whiteSpace=wrap;html=1;fillColor=#f5f5f5;strokeColor=#666666;fontColor=#333333;" parent="1" vertex="1">
          <mxGeometry x="210" y="500" width="160" height="60" as="geometry" />
        </mxCell>
        <mxCell id="02BFiXAFzsQtkcaQQJPB-88" style="edgeStyle=orthogonalEdgeStyle;rounded=0;orthogonalLoop=1;jettySize=auto;html=1;exitX=0.5;exitY=0;exitDx=0;exitDy=0;entryX=0.5;entryY=1;entryDx=0;entryDy=0;" parent="1" source="02BFiXAFzsQtkcaQQJPB-20" target="02BFiXAFzsQtkcaQQJPB-87" edge="1">
          <mxGeometry relative="1" as="geometry" />
        </mxCell>
        <mxCell id="02BFiXAFzsQtkcaQQJPB-20" value="quadlets-hostwatch.service" style="rounded=1;whiteSpace=wrap;html=1;fillColor=#ffe6cc;strokeColor=#d79b00;" parent="1" vertex="1">
          <mxGeometry x="610" y="480" width="160" height="60" as="geometry" />
        </mxCell>
        <mxCell id="02BFiXAFzsQtkcaQQJPB-68" style="edgeStyle=orthogonalEdgeStyle;rounded=0;orthogonalLoop=1;jettySize=auto;html=1;exitX=0.5;exitY=1;exitDx=0;exitDy=0;entryX=0.5;entryY=0;entryDx=0;entryDy=0;" parent="1" source="02BFiXAFzsQtkcaQQJPB-66" target="02BFiXAFzsQtkcaQQJPB-17" edge="1">
          <mxGeometry relative="1" as="geometry" />
        </mxCell>
        <mxCell id="02BFiXAFzsQtkcaQQJPB-66" value="&lt;div&gt;PartOf&lt;/div&gt;" style="shape=process;whiteSpace=wrap;html=1;backgroundOutline=1;" parent="1" vertex="1">
          <mxGeometry x="250" y="410" width="80" height="40" as="geometry" />
        </mxCell>
        <mxCell id="LZFOruKKCX2UdWkoUHdO-14" style="edgeStyle=orthogonalEdgeStyle;rounded=0;orthogonalLoop=1;jettySize=auto;html=1;exitX=0.75;exitY=1;exitDx=0;exitDy=0;entryX=0.5;entryY=0;entryDx=0;entryDy=0;" edge="1" parent="1" source="02BFiXAFzsQtkcaQQJPB-72" target="02BFiXAFzsQtkcaQQJPB-1">
          <mxGeometry relative="1" as="geometry" />
        </mxCell>
        <mxCell id="LZFOruKKCX2UdWkoUHdO-15" style="edgeStyle=orthogonalEdgeStyle;rounded=0;orthogonalLoop=1;jettySize=auto;html=1;exitX=0.25;exitY=1;exitDx=0;exitDy=0;" edge="1" parent="1" source="02BFiXAFzsQtkcaQQJPB-72" target="LZFOruKKCX2UdWkoUHdO-1">
          <mxGeometry relative="1" as="geometry" />
        </mxCell>
        <mxCell id="02BFiXAFzsQtkcaQQJPB-72" value="Wants" style="shape=process;whiteSpace=wrap;html=1;backgroundOutline=1;" parent="1" vertex="1">
          <mxGeometry x="190" y="190" width="80" height="40" as="geometry" />
        </mxCell>
        <mxCell id="02BFiXAFzsQtkcaQQJPB-85" style="edgeStyle=orthogonalEdgeStyle;rounded=0;orthogonalLoop=1;jettySize=auto;html=1;exitX=1;exitY=0.5;exitDx=0;exitDy=0;entryX=0.5;entryY=1;entryDx=0;entryDy=0;" parent="1" source="02BFiXAFzsQtkcaQQJPB-74" target="02BFiXAFzsQtkcaQQJPB-84" edge="1">
          <mxGeometry relative="1" as="geometry" />
        </mxCell>
        <mxCell id="02BFiXAFzsQtkcaQQJPB-74" value="&lt;div&gt;/etc/hostname&lt;/div&gt;&lt;div&gt;/etc/hosts&lt;/div&gt;&lt;div&gt;/etc/localtime&lt;/div&gt;&lt;div&gt;/etc/resolv.conf&lt;/div&gt;" style="whiteSpace=wrap;html=1;aspect=fixed;" parent="1" vertex="1">
          <mxGeometry x="505" y="680" width="90" height="90" as="geometry" />
        </mxCell>
        <mxCell id="02BFiXAFzsQtkcaQQJPB-116" style="edgeStyle=orthogonalEdgeStyle;rounded=0;orthogonalLoop=1;jettySize=auto;html=1;exitX=0.5;exitY=1;exitDx=0;exitDy=0;entryX=0;entryY=0.5;entryDx=0;entryDy=0;" parent="1" source="02BFiXAFzsQtkcaQQJPB-76" target="02BFiXAFzsQtkcaQQJPB-74" edge="1">
          <mxGeometry relative="1" as="geometry" />
        </mxCell>
        <mxCell id="02BFiXAFzsQtkcaQQJPB-76" value="Needs" style="rhombus;whiteSpace=wrap;html=1;" parent="1" vertex="1">
          <mxGeometry x="355" y="630" width="90" height="40" as="geometry" />
        </mxCell>
        <mxCell id="02BFiXAFzsQtkcaQQJPB-81" value="Upholds" style="shape=process;whiteSpace=wrap;html=1;backgroundOutline=1;" parent="1" vertex="1">
          <mxGeometry x="460" y="420" width="80" height="40" as="geometry" />
        </mxCell>
        <mxCell id="02BFiXAFzsQtkcaQQJPB-83" style="edgeStyle=orthogonalEdgeStyle;rounded=0;orthogonalLoop=1;jettySize=auto;html=1;exitX=0.5;exitY=1;exitDx=0;exitDy=0;entryX=0.5;entryY=0;entryDx=0;entryDy=0;" parent="1" source="02BFiXAFzsQtkcaQQJPB-82" target="02BFiXAFzsQtkcaQQJPB-74" edge="1">
          <mxGeometry relative="1" as="geometry" />
        </mxCell>
        <mxCell id="02BFiXAFzsQtkcaQQJPB-82" value="Monitors" style="shape=process;whiteSpace=wrap;html=1;backgroundOutline=1;" parent="1" vertex="1">
          <mxGeometry x="510" y="600" width="80" height="40" as="geometry" />
        </mxCell>
        <mxCell id="02BFiXAFzsQtkcaQQJPB-86" style="edgeStyle=orthogonalEdgeStyle;rounded=0;orthogonalLoop=1;jettySize=auto;html=1;exitX=0.5;exitY=0;exitDx=0;exitDy=0;entryX=0.5;entryY=1;entryDx=0;entryDy=0;" parent="1" source="02BFiXAFzsQtkcaQQJPB-84" target="02BFiXAFzsQtkcaQQJPB-20" edge="1">
          <mxGeometry relative="1" as="geometry" />
        </mxCell>
        <mxCell id="02BFiXAFzsQtkcaQQJPB-84" value="OnChange&lt;div&gt;Trigger&lt;/div&gt;" style="shape=process;whiteSpace=wrap;html=1;backgroundOutline=1;" parent="1" vertex="1">
          <mxGeometry x="650" y="600" width="80" height="40" as="geometry" />
        </mxCell>
        <mxCell id="02BFiXAFzsQtkcaQQJPB-89" style="edgeStyle=orthogonalEdgeStyle;rounded=0;orthogonalLoop=1;jettySize=auto;html=1;exitX=0.5;exitY=0;exitDx=0;exitDy=0;entryX=1;entryY=0.5;entryDx=0;entryDy=0;" parent="1" source="02BFiXAFzsQtkcaQQJPB-87" target="02BFiXAFzsQtkcaQQJPB-1" edge="1">
          <mxGeometry relative="1" as="geometry" />
        </mxCell>
        <mxCell id="02BFiXAFzsQtkcaQQJPB-87" value="&lt;div&gt;OneShot&lt;/div&gt;Restarts" style="shape=process;whiteSpace=wrap;html=1;backgroundOutline=1;" parent="1" vertex="1">
          <mxGeometry x="650" y="380" width="80" height="40" as="geometry" />
        </mxCell>
        <mxCell id="02BFiXAFzsQtkcaQQJPB-94" value="container.service" style="rounded=1;whiteSpace=wrap;html=1;fillColor=#f5f5f5;strokeColor=#666666;fontColor=#333333;" parent="1" vertex="1">
          <mxGeometry x="-170" y="310" width="160" height="60" as="geometry" />
        </mxCell>
        <mxCell id="02BFiXAFzsQtkcaQQJPB-103" style="edgeStyle=orthogonalEdgeStyle;rounded=0;orthogonalLoop=1;jettySize=auto;html=1;exitX=0.5;exitY=0;exitDx=0;exitDy=0;entryX=0.5;entryY=1;entryDx=0;entryDy=0;" parent="1" source="02BFiXAFzsQtkcaQQJPB-95" target="02BFiXAFzsQtkcaQQJPB-96" edge="1">
          <mxGeometry relative="1" as="geometry" />
        </mxCell>
        <mxCell id="02BFiXAFzsQtkcaQQJPB-95" value="SERVICENAME.target&lt;div&gt;(individual quadlet)&lt;/div&gt;" style="rounded=1;whiteSpace=wrap;html=1;fillColor=#d5e8d4;strokeColor=#82b366;" parent="1" vertex="1">
          <mxGeometry x="-90" y="695" width="160" height="60" as="geometry" />
        </mxCell>
        <mxCell id="02BFiXAFzsQtkcaQQJPB-102" style="edgeStyle=orthogonalEdgeStyle;rounded=0;orthogonalLoop=1;jettySize=auto;html=1;exitX=0.5;exitY=0;exitDx=0;exitDy=0;entryX=0.5;entryY=1;entryDx=0;entryDy=0;" parent="1" source="02BFiXAFzsQtkcaQQJPB-96" target="02BFiXAFzsQtkcaQQJPB-94" edge="1">
          <mxGeometry relative="1" as="geometry" />
        </mxCell>
        <mxCell id="LZFOruKKCX2UdWkoUHdO-17" style="edgeStyle=orthogonalEdgeStyle;rounded=0;orthogonalLoop=1;jettySize=auto;html=1;exitX=1;exitY=0.5;exitDx=0;exitDy=0;entryX=0.25;entryY=1;entryDx=0;entryDy=0;" edge="1" parent="1" source="02BFiXAFzsQtkcaQQJPB-96" target="02BFiXAFzsQtkcaQQJPB-17">
          <mxGeometry relative="1" as="geometry" />
        </mxCell>
        <mxCell id="LZFOruKKCX2UdWkoUHdO-18" style="edgeStyle=orthogonalEdgeStyle;rounded=0;orthogonalLoop=1;jettySize=auto;html=1;exitX=1;exitY=0.5;exitDx=0;exitDy=0;entryX=0.5;entryY=1;entryDx=0;entryDy=0;" edge="1" parent="1" source="02BFiXAFzsQtkcaQQJPB-96" target="LZFOruKKCX2UdWkoUHdO-2">
          <mxGeometry relative="1" as="geometry" />
        </mxCell>
        <mxCell id="02BFiXAFzsQtkcaQQJPB-96" value="WantedBy&lt;div&gt;Start&lt;/div&gt;" style="shape=process;whiteSpace=wrap;html=1;backgroundOutline=1;" parent="1" vertex="1">
          <mxGeometry x="-50" y="600" width="80" height="40" as="geometry" />
        </mxCell>
        <mxCell id="02BFiXAFzsQtkcaQQJPB-101" style="edgeStyle=orthogonalEdgeStyle;rounded=0;orthogonalLoop=1;jettySize=auto;html=1;exitX=0.5;exitY=1;exitDx=0;exitDy=0;entryX=0.5;entryY=0;entryDx=0;entryDy=0;" parent="1" source="02BFiXAFzsQtkcaQQJPB-97" target="02BFiXAFzsQtkcaQQJPB-94" edge="1">
          <mxGeometry relative="1" as="geometry" />
        </mxCell>
        <mxCell id="02BFiXAFzsQtkcaQQJPB-97" value="WantedBy" style="shape=process;whiteSpace=wrap;html=1;backgroundOutline=1;" parent="1" vertex="1">
          <mxGeometry x="40" y="190" width="80" height="40" as="geometry" />
        </mxCell>
        <mxCell id="JThwmtuQTnnpR4SAIkMF-7" style="edgeStyle=orthogonalEdgeStyle;rounded=0;orthogonalLoop=1;jettySize=auto;html=1;exitX=0.25;exitY=0;exitDx=0;exitDy=0;entryX=0.75;entryY=1;entryDx=0;entryDy=0;dashed=1;" parent="1" source="JThwmtuQTnnpR4SAIkMF-2" target="02BFiXAFzsQtkcaQQJPB-94" edge="1">
          <mxGeometry relative="1" as="geometry" />
        </mxCell>
        <mxCell id="LZFOruKKCX2UdWkoUHdO-23" style="edgeStyle=orthogonalEdgeStyle;rounded=0;orthogonalLoop=1;jettySize=auto;html=1;exitX=0.75;exitY=1;exitDx=0;exitDy=0;entryX=0.25;entryY=0;entryDx=0;entryDy=0;dashed=1;" edge="1" parent="1" source="JThwmtuQTnnpR4SAIkMF-2" target="LZFOruKKCX2UdWkoUHdO-2">
          <mxGeometry relative="1" as="geometry" />
        </mxCell>
        <mxCell id="LZFOruKKCX2UdWkoUHdO-31" style="edgeStyle=orthogonalEdgeStyle;rounded=0;orthogonalLoop=1;jettySize=auto;html=1;exitX=0;exitY=0.5;exitDx=0;exitDy=0;entryX=1;entryY=0.5;entryDx=0;entryDy=0;dashed=1;" edge="1" parent="1" source="JThwmtuQTnnpR4SAIkMF-2" target="LZFOruKKCX2UdWkoUHdO-30">
          <mxGeometry relative="1" as="geometry" />
        </mxCell>
        <mxCell id="JThwmtuQTnnpR4SAIkMF-2" value="&lt;font style=&quot;font-size: 10px;&quot;&gt;systemd.generator&lt;/font&gt;&lt;div&gt;&lt;font style=&quot;font-size: 10px;&quot;&gt;Generates&lt;/font&gt;&lt;/div&gt;" style="shape=process;whiteSpace=wrap;html=1;backgroundOutline=1;fillColor=#f8cecc;strokeColor=#b85450;dashed=1;fillStyle=solid;" parent="1" vertex="1">
          <mxGeometry x="-60" y="415" width="110" height="35" as="geometry" />
        </mxCell>
        <mxCell id="LZFOruKKCX2UdWkoUHdO-21" style="edgeStyle=orthogonalEdgeStyle;rounded=0;orthogonalLoop=1;jettySize=auto;html=1;exitX=0.5;exitY=1;exitDx=0;exitDy=0;entryX=0.5;entryY=0;entryDx=0;entryDy=0;" edge="1" parent="1" source="LZFOruKKCX2UdWkoUHdO-1" target="LZFOruKKCX2UdWkoUHdO-3">
          <mxGeometry relative="1" as="geometry" />
        </mxCell>
        <mxCell id="LZFOruKKCX2UdWkoUHdO-1" value="quadlets-distrobox.target&lt;div&gt;(distrobox quadlets)&lt;/div&gt;" style="rounded=1;whiteSpace=wrap;html=1;fillColor=#d5e8d4;strokeColor=#82b366;" vertex="1" parent="1">
          <mxGeometry x="50" y="320" width="160" height="60" as="geometry" />
        </mxCell>
        <mxCell id="LZFOruKKCX2UdWkoUHdO-2" value="container.service&lt;div&gt;(&lt;span style=&quot;background-color: transparent; color: light-dark(rgb(51, 51, 51), rgb(193, 193, 193));&quot;&gt;distrobox)&lt;/span&gt;&lt;/div&gt;" style="rounded=1;whiteSpace=wrap;html=1;fillColor=#f5f5f5;strokeColor=#666666;fontColor=#333333;" vertex="1" parent="1">
          <mxGeometry x="30" y="500" width="160" height="60" as="geometry" />
        </mxCell>
        <mxCell id="LZFOruKKCX2UdWkoUHdO-3" value="WantedBy" style="shape=process;whiteSpace=wrap;html=1;backgroundOutline=1;" vertex="1" parent="1">
          <mxGeometry x="70" y="420" width="80" height="40" as="geometry" />
        </mxCell>
        <mxCell id="LZFOruKKCX2UdWkoUHdO-25" value="&lt;span style=&quot;color: rgb(51, 51, 51);&quot;&gt;container&lt;/span&gt;.container" style="rounded=1;whiteSpace=wrap;html=1;fillColor=#e1d5e7;strokeColor=#9673a6;dashed=1;fillStyle=solid;" vertex="1" parent="1">
          <mxGeometry x="-216" y="495" width="108" height="30" as="geometry" />
        </mxCell>
        <mxCell id="LZFOruKKCX2UdWkoUHdO-32" style="edgeStyle=orthogonalEdgeStyle;rounded=0;orthogonalLoop=1;jettySize=auto;html=1;exitX=0.5;exitY=1;exitDx=0;exitDy=0;entryX=0.5;entryY=0;entryDx=0;entryDy=0;dashed=1;" edge="1" parent="1" source="LZFOruKKCX2UdWkoUHdO-30" target="LZFOruKKCX2UdWkoUHdO-25">
          <mxGeometry relative="1" as="geometry" />
        </mxCell>
        <mxCell id="LZFOruKKCX2UdWkoUHdO-30" value="From" style="rhombus;whiteSpace=wrap;html=1;dashed=1;" vertex="1" parent="1">
          <mxGeometry x="-207" y="413.5" width="90" height="40" as="geometry" />
        </mxCell>
      </root>
    </mxGraphModel>
  </diagram>
</mxfile>
